<?xml version="1.0" standalone="no"?>
<!DOCTYPE svg PUBLIC "-//W3C//DTD SVG 20010904//EN"
 "http://www.w3.org/TR/2001/REC-SVG-20010904/DTD/svg10.dtd">
<svg version="1.0" xmlns="http://www.w3.org/2000/svg"
 width="700.000000pt" height="700.000000pt" viewBox="0 0 700.000000 700.000000"
 preserveAspectRatio="xMidYMid meet">
<g transform="translate(0.000000,700.000000) scale(0.100000,-0.100000)"
fill="#000000" stroke="none">
<path d="M2416 6663 c63 -186 330 -968 593 -1738 339 -993 475 -1402 466
-1407 -6 -4 -758 -262 -1671 -574 -912 -311 -1692 -577 -1731 -591 l-73 -25 0
-1164 0 -1164 1504 0 1505 0 -116 338 c-204 596 -266 783 -262 786 4 3 1623
556 3536 1208 l833 283 0 2193 0 2192 -2350 0 -2349 0 115 -337z"/>
</g>
</svg>
